<svg xmlns="http://www.w3.org/2000/svg" viewBox="0 0 40.67 48.46"><defs><style>.cls-1{fill:#fff;}</style></defs><title>Asset 2brain</title><g id="Layer_2" data-name="Layer 2"><g id="Skill_set" data-name="Skill set"><g id="Technical"><path d="M21.13,3a8,8,0,0,1,.27-.86,3.88,3.88,0,0,1,.59-1,3.1,3.1,0,0,1,3.35-1,.56.56,0,0,0,.31,0,2.51,2.51,0,0,1,2.47.53.74.74,0,0,0,.66.17,3.48,3.48,0,0,1,3.56,1.36.48.48,0,0,0,.29.17,3.19,3.19,0,0,1,2.45,2.58.64.64,0,0,0,.22.32,4.52,4.52,0,0,1,1.61,2.82,10,10,0,0,1,0,1.11l.11.09a2.44,2.44,0,0,1,1.14,2.59.8.8,0,0,0,.14.54,4.65,4.65,0,0,1,1.14,3.1.56.56,0,0,0,.14.38,3.67,3.67,0,0,1,.84,2.94,10.69,10.69,0,0,1-.27,1.48.52.52,0,0,0,0,.28,3.57,3.57,0,0,1,.1,3,.66.66,0,0,0,0,.46,3.26,3.26,0,0,1,.12,2.49.56.56,0,0,0,0,.36,3,3,0,0,1,0,2.58,2.8,2.8,0,0,0-.29,1.74A5.74,5.74,0,0,1,39.22,35a.81.81,0,0,0-.14.35,3.07,3.07,0,0,1-1.2,2.45,1.37,1.37,0,0,0-.46.75,3.13,3.13,0,0,1-1,1.54,2.36,2.36,0,0,0-.53.71,5.21,5.21,0,0,1-2,2.4,1.46,1.46,0,0,0-.48.56,4.32,4.32,0,0,1-2.14,1.89.73.73,0,0,0-.32.23,6.16,6.16,0,0,1-3.36,1.75h-.1a3.55,3.55,0,0,0-1.85.22,7.87,7.87,0,0,1-2.32.15,2.33,2.33,0,0,1-1.75-1.27,9.64,9.64,0,0,0-.71-.9c-.13.21-.24.42-.37.61a2.85,2.85,0,0,1-2.53,1.42.47.47,0,0,0-.21,0,2.32,2.32,0,0,1-1.88.06c-.1,0-.26-.05-.32,0a1.84,1.84,0,0,1-1.7.5,11.76,11.76,0,0,1-1.74-.38A2.41,2.41,0,0,1,10.59,47a.67.67,0,0,0-.27-.23,3.5,3.5,0,0,1-1.83-1.69c-.09-.22-.37-.34-.5-.55-.35-.6-.67-1.23-1-1.84a1.76,1.76,0,0,0-.27-.34,14.08,14.08,0,0,1-1.45-1.21A8.35,8.35,0,0,1,3.56,38.2a.88.88,0,0,1-.11-.36c.07-.46-.18-.65-.46-1a4.79,4.79,0,0,1-1.62-3.07A2.76,2.76,0,0,0,1,32.61a9.5,9.5,0,0,1-1-3.74A3.39,3.39,0,0,1,.49,27a.58.58,0,0,0,0-.43,3.22,3.22,0,0,1-.13-2.93.37.37,0,0,0,0-.27,2.2,2.2,0,0,1-.08-2,3.11,3.11,0,0,0,.22-1.51,4.23,4.23,0,0,1,.31-2.12,8.05,8.05,0,0,1,1-1.33,1.06,1.06,0,0,0,.18-.37c.13-.73.2-1.48.39-2.2a4.55,4.55,0,0,1,.6-1,.79.79,0,0,0,.13-.33,2.06,2.06,0,0,1,.54-1.24,1,1,0,0,0,.2-.6,2.29,2.29,0,0,1,.49-1.5.7.7,0,0,0,.16-.4,3.37,3.37,0,0,1,.72-2.3c.2-.27.44-.52.63-.8a5.47,5.47,0,0,0,.63-1.07A3,3,0,0,1,7.84,3.1a4.33,4.33,0,0,0,1.21-.91A3.72,3.72,0,0,1,12.35.81a.36.36,0,0,0,.23-.08A3.48,3.48,0,0,1,15.25.3c.58.12,1.2,0,1.77.18s1.27.23,1.91.35a2.08,2.08,0,0,1,1.81,1.76.12.12,0,0,0,0,.1C20.87,2.79,21,2.89,21.13,3Zm-.82,26.35c0-2.65,0-5.17,0-7.69a.64.64,0,0,0-.25-.42,1.94,1.94,0,0,1-.69-1.43l.95.72V10.73L19.2,11a2,2,0,0,0-1.23.9c-.07.12-.21.19-.32.29,0-.18-.14-.39-.08-.52a7.19,7.19,0,0,1,.52-.83.86.86,0,0,0,.13-.43A8.22,8.22,0,0,0,18,9.61l-.14-.51c.82,0,.94.64,1,1.17l1.45-.1V9.79c0-1.88,0-3.76,0-5.63A.88.88,0,0,0,20,3.34c-.31-.19-.65-.33-1-.52-.11-.07-.25-.21-.25-.32s.14-.24.25-.33A1.66,1.66,0,0,1,19.47,2l-1.09-.55-.12.08c.07.37.13.75.21,1.12a.31.31,0,0,1-.23.41c-.48.17-.83-.16-.8-.76s-.07-.85-.73-1a4.35,4.35,0,0,0-.51,0c-.43-.05-.87-.08-1.3-.16a3,3,0,0,0-1.92.2,5.09,5.09,0,0,1-1.42.44,2.91,2.91,0,0,0-1.77.9A5.72,5.72,0,0,1,8,4a1.59,1.59,0,0,0-.72.75,5.51,5.51,0,0,1-1,1.66,5.32,5.32,0,0,0-.59.74,2.15,2.15,0,0,0-.21,2.16,3.75,3.75,0,0,1,.16.43c0,.12,0,.32,0,.36a.67.67,0,0,1-.42.07c-.12,0-.22-.15-.4-.29a5.11,5.11,0,0,0,0,.74,1.56,1.56,0,0,1-.36,1.18,1.75,1.75,0,0,0,.2,2.51c.23.19.47.37.68.58a2.18,2.18,0,0,1,.64,1.82c0,.1-.13.18-.2.27a2.18,2.18,0,0,1-.21-.22,12.29,12.29,0,0,0-1-1.31,3.35,3.35,0,0,1-1.24-1.59l-.18.6a7.07,7.07,0,0,0,0,3.45c0,.16.14.4-.12.43a.74.74,0,0,1-.51-.14c-.1-.08-.13-.27-.17-.42A5.75,5.75,0,0,1,2,17.2a3.26,3.26,0,0,0-.5.76,7.06,7.06,0,0,0-.22,1.52A5.3,5.3,0,0,1,1,21.67,1.18,1.18,0,0,0,1.2,23c.33.34.31.49,0,.86a1.24,1.24,0,0,0-.32.66,3,3,0,0,0,.4,1.77l.55,1.11-.06.13-.71-.09a4,4,0,0,0,.07,3l.33-1.26.1,0a2,2,0,0,0,.68,1.9c.59.48.79.46,1.28-.12a2.31,2.31,0,0,1,.24-.29A1.56,1.56,0,0,1,4,30.58l.12.07a2.16,2.16,0,0,1-.24.73c-.47.51-.17,1,0,1.41a5.66,5.66,0,0,0,.31.48,3.67,3.67,0,0,1,.17.47,5.18,5.18,0,0,1-.54-.15,1.33,1.33,0,0,1-.66-.88c-.09-.3-.18-.53-.56-.51a1.1,1.1,0,0,1-.59-.27c-.29-.22-.55-.47-.76-.65.2.38.46.85.69,1.34a2.07,2.07,0,0,1,.16.65,6.7,6.7,0,0,0,.05.79,4.36,4.36,0,0,0,1.62,2.33.75.75,0,0,1,.38.77,2.15,2.15,0,0,0,.34,1.32c.28.52.6,1,.92,1.49A4,4,0,0,0,8,41.78a1.42,1.42,0,0,1,.47.21c.24.16.25.39,0,.53a3.05,3.05,0,0,1-.6.17,3.11,3.11,0,0,0,1.69,1.87,5.15,5.15,0,0,1,.54.23c.46.25.47.38,0,.74l1.07.43c.32.14.53.33.28.76a5.61,5.61,0,0,0,3.21.63c.38,0,.55-.3.52-.71s-.13-.67-.18-1A5.49,5.49,0,0,1,15,45a1.57,1.57,0,0,1,.73,1.21c0,.18,0,.36.05.54s.06.24.12.25c.45.08.91.13,1.38.19a6.61,6.61,0,0,1,0-1.19,3.4,3.4,0,0,0-.53-2.42c-.07-.12-.12-.24-.18-.37.36-.18.56,0,.73.24a3,3,0,0,1,.6,2.32,6.49,6.49,0,0,0-.05.77c0,.22.1.32.32.33a2.44,2.44,0,0,0,2.09-2.12c0-3.23,0-6.47.05-9.7a2.18,2.18,0,0,0-.68-1.61,5.75,5.75,0,0,1-.73-.9,1.47,1.47,0,0,1-.12-.53l.12-.05,1.41,1V31.09a.42.42,0,0,0-.08-.21,2.28,2.28,0,0,0-1.84-1.46,2.57,2.57,0,0,1-2-1.22l-.46-.65c-.5-.74-.65-.79-1.47-.54a1.83,1.83,0,0,1-1.91-.42,10.46,10.46,0,0,1-1.09-1.29c-.34-.48-.61-1-.95-1.51a2.53,2.53,0,0,0-2.32-1.41c-.52,0-.53.06-.66.61a1.58,1.58,0,0,1-.29.54.27.27,0,0,1-.26,0s0-.17,0-.26c.21-1,.13-1.19-.74-1.64l-.43-.22a3,3,0,0,1-1.16-1c-.31-.45-.66-.86-1-1.29a2.57,2.57,0,0,1,1.19.8A4.69,4.69,0,0,0,6.36,21c.42.2.81.48,1.27.76a2.17,2.17,0,0,1,2.77.57A17.08,17.08,0,0,1,11.61,24c.26.36.53.7.79,1.05a3.3,3.3,0,0,1,.3.43,1.16,1.16,0,0,0,1.62.73l.42-.13a1.18,1.18,0,0,1,1.29.29,5.33,5.33,0,0,1,.63.79,2.41,2.41,0,0,0,2,1.33A2.7,2.7,0,0,1,20.31,29.39ZM37.53,13l-1.34,1.15c-.07,0-.22.1-.25.06s-.18-.24-.15-.31a3.11,3.11,0,0,1,.5-.82,5.84,5.84,0,0,1,.83-.63.68.68,0,0,0,.29-.62,1.86,1.86,0,0,0-1-1.83A.75.75,0,0,1,36,9.09,2.9,2.9,0,0,0,36,7.88,4.08,4.08,0,0,0,34.2,5.64.43.43,0,0,1,34,5a.52.52,0,0,0,0-.37A3.12,3.12,0,0,0,32.8,3.39a.5.5,0,0,0-.36,0,.52.52,0,0,1-.74-.25,3.83,3.83,0,0,0-.57-.74,2.89,2.89,0,0,0-2.29-.7,1.82,1.82,0,0,1-1.58-.38,1.39,1.39,0,0,0-1.83-.16.53.53,0,0,1-.47,0,1.87,1.87,0,0,0-2.35.4l.4.3c-.1.13-.2.27-.31.4a.85.85,0,0,1-.14.11,2.25,2.25,0,0,0-.95,1.88c0,5.39-.05,10.79-.09,16.19v.58c.29-.19.51-.37.76-.5a2.1,2.1,0,0,0,1-1.13.8.8,0,0,1,.2-.32c.1-.09.27-.19.37-.15s.15.25.16.38a1,1,0,0,1-.08.42,2.68,2.68,0,0,1-1.18,1.42l-1,.55a.61.61,0,0,0-.3.57c0,.74,0,1.48,0,2.21,0,.48,0,.95,0,1.5.21-.25.35-.45.52-.62a1.05,1.05,0,0,1,.35-.13c0,.13.12.3.07.38-.22.4-.47.77-.72,1.14-.07.1-.22.19-.22.29,0,.87,0,1.74,0,2.6.54-.29,1.05-.59,1.58-.82a3.76,3.76,0,0,0,2-2,2.46,2.46,0,0,1,.38-.62c.19-.21.43-.31.59.05a4.51,4.51,0,0,1,.75-.22c1.05-.12,2.1-.25,3.15-.32a3.45,3.45,0,0,0,3.22-3.17c0-.46.06-.93.13-1.39,0-.14.2-.25.3-.37a1.92,1.92,0,0,1,.26.32,2.3,2.3,0,0,1,.13.42,1.17,1.17,0,0,0,.32,0,2.89,2.89,0,0,0,2-1.22A14.75,14.75,0,0,0,37,18.7a4.23,4.23,0,0,1,.23-.48.26.26,0,0,1,.24-.11.31.31,0,0,1,.16.23,4.84,4.84,0,0,1,0,.53,4.88,4.88,0,0,0,.54-.9c.15-.3.2-.68.61-.89a3.56,3.56,0,0,1-1,2.64c.25.33.54.61.38,1.05a.49.49,0,0,1-.23.26s-.15-.12-.23-.2l-.57-.63a4.09,4.09,0,0,1-3.19,2.18c0,.18-.06.35-.1.51a4.51,4.51,0,0,1-2.52,3.38A5.32,5.32,0,0,1,29,26.6a8.85,8.85,0,0,0-3.07.34,1,1,0,0,0-.46.38,4.46,4.46,0,0,1-2.15,2c-.45.2-.92.4-1.37.63a1,1,0,0,0-.55,1c0,3.35,0,6.71-.06,10.06v.59l.09-.1.41-.29a3.27,3.27,0,0,1,0,.44,1.38,1.38,0,0,0,.39,1.27c.37.29.37.42.07.83a3.57,3.57,0,0,0-.55.89A1,1,0,0,0,22.55,46a1.94,1.94,0,0,1,.43.11c.1,0,.24.13.25.22s-.1.21-.17.31a.84.84,0,0,1-.17.13,1.64,1.64,0,0,0,2.24-.46,2.62,2.62,0,0,1,.5-.55.35.35,0,0,1,.34,0c.07,0,.11.22.1.33-.05.26-.14.52-.22.83.26-.21.48-.39.71-.56.42-.29.63-.19.67.33a.94.94,0,0,0,.29,0,6,6,0,0,0,2.87-1.43,4.34,4.34,0,0,1,.94-.61l1-.62c-.34,0-.67,0-.82-.09a1.38,1.38,0,0,0-1.24-.25s-.07,0-.11,0a1.84,1.84,0,0,1-1.29-.83,7.56,7.56,0,0,1-.44.66,3.2,3.2,0,0,1-2.72,1.15.53.53,0,0,0-.41.12c-.22.28-.39.62-.6.92a1.84,1.84,0,0,1-.29.26c0-.13-.13-.29-.09-.4.15-.39.35-.76.51-1.15a1,1,0,0,1,1-.64,2.63,2.63,0,0,0,2-.76,2.51,2.51,0,0,0,.42-.71.36.36,0,0,0-.1-.31,1.64,1.64,0,0,1-.83-1.15c-.33.11-.64.2-.94.33s-.46.17-.53.33a2,2,0,0,1-1.24,1.23.44.44,0,0,0-.19.3,2.34,2.34,0,0,1-1.14,2.15,1.07,1.07,0,0,1-1.08.09,2.3,2.3,0,0,1,.52-.36,1.92,1.92,0,0,0,1-1.73,1,1,0,0,1,.71-1.25,1.24,1.24,0,0,0,.86-1,.63.63,0,0,1,.3-.39,1.94,1.94,0,0,1,.77-.22c.43,0,.63-.28.81-.66a1.42,1.42,0,0,1,.53-.53c.53-.35,1.12-.61,1.63-1a2.7,2.7,0,0,0,1-2.56,1.35,1.35,0,0,0-.11-.34l-.11,0a1.53,1.53,0,0,1-2.11,0,.22.22,0,0,0-.19,0,3.85,3.85,0,0,0-.76.44.47.47,0,0,0-.07.42,1.87,1.87,0,0,1-1,2.46.38.38,0,0,1-.36-.05.42.42,0,0,1,0-.38,2,2,0,0,1,.46-.53c.63-.45.47-.87.14-1.33s-.51-.52-.92-.23c.11-.56.44-.69,1.1-.55a12.71,12.71,0,0,1,1-.8.52.52,0,0,0,.3-.46c0-.3.12-.55.5-.55,0,.15.06.28.08.42a.78.78,0,0,0,.59.71,1,1,0,0,0,1-.33c.17-.26.15-.81-.06-.89A1.22,1.22,0,0,1,29,32.47a8.58,8.58,0,0,1,0-1.34A1.1,1.1,0,0,0,28.3,30a1.48,1.48,0,0,0-1.09.16A2.35,2.35,0,0,0,26,31.92a3.18,3.18,0,0,1-.8,1.58,3,3,0,0,1-1.46.66c-.46.13-.91.3-1.05.88,0,.08-.14.12-.21.18s-.15-.17-.14-.23a1.57,1.57,0,0,1,.17-.58,2.07,2.07,0,0,1,1.21-.95,2.29,2.29,0,0,0,1.67-2A4.2,4.2,0,0,1,26.08,30a2.45,2.45,0,0,1,2-1.05,1.77,1.77,0,0,1,1.66,2.24,2.92,2.92,0,0,0,0,1,.64.64,0,0,0,.39.44c.15,0,.34-.16.5-.27s.17-.22.28-.3a.3.3,0,0,1,.26,0s.07.17.06.24a1.38,1.38,0,0,1-.2.61,1.57,1.57,0,0,0-.36,1.16c0,.28,0,.52.11.62a6.08,6.08,0,0,1,1.43-.57,5.45,5.45,0,0,1,1.65.17,1.64,1.64,0,0,0,1.92-.64,1,1,0,0,1,.27-.26.35.35,0,0,1,.3,0s.1.18.09.26c-.06.3-.14.59-.24,1a2.5,2.5,0,0,0,.76-.15,2.41,2.41,0,0,0,1.25-1.77,7,7,0,0,1,.14-.8c0-.11.15-.19.23-.29a1.64,1.64,0,0,1,.28.31.5.5,0,0,1,0,.3,3.72,3.72,0,0,1-1.55,2.85,1.25,1.25,0,0,1-1.74,0,2.38,2.38,0,0,1-2,.21,4.08,4.08,0,0,0-.6-.16c-1.37-.24-1.88,0-2.11,1.4a3.57,3.57,0,0,1-1.51,2.46c-.49.35-1,.68-1.52,1,0,.93.38,1.31,1.29,1.23a2.75,2.75,0,0,0,.5-.09,3.43,3.43,0,0,0,2.09-1.76,2,2,0,0,1,1.55-1.08c.25,0,.49,0,.73-.06.89-.15,1.9-.14,2-1.52,0-.11.21-.27.34-.29s.25.17.28.29a1.22,1.22,0,0,1,0,.57,2.13,2.13,0,0,1-.86,1.3,3.43,3.43,0,0,1-1.91.56,1.79,1.79,0,0,0-1.72,1.06A3.59,3.59,0,0,1,29.84,42l-.49.1a1.27,1.27,0,0,0,1.6.65c.15,0,.44,0,.51,0a.82.82,0,0,0,.82.37,1.57,1.57,0,0,1,.44.09,10.59,10.59,0,0,1,1-.8,3.36,3.36,0,0,0,1.4-1.58,4,4,0,0,1,1-1.44,5.37,5.37,0,0,0,.64-.89c-.45-.14-.5-.32-.26-.59s.29-.19.42-.3A2.79,2.79,0,0,0,38.23,36c-.36-.23-.36-.42-.06-.71a1.87,1.87,0,0,0,.41-.48,5,5,0,0,0,.67-3.66c-.42-.07-.46-.2-.22-.59a9.45,9.45,0,0,0,.63-1.12,2.78,2.78,0,0,0,.14-1.61l-.5,0c.25-1,.85-2,.29-3.05-.47.27-.83.82-1.5.42a3.27,3.27,0,0,0,1.51-3.81,2.91,2.91,0,0,1-.47.43,2.09,2.09,0,0,1-.52.13c0-.18,0-.41.13-.53a3.84,3.84,0,0,0,.89-2.29,3.33,3.33,0,0,0-.73-2.66,1.19,1.19,0,0,1-.25-.77A4.4,4.4,0,0,0,37.53,13ZM21.34,43.85c.42-.3.42-.59,0-1.08Z"/><path class="cls-1" d="M20.31,29.39a2.7,2.7,0,0,0-1.67-.91,2.41,2.41,0,0,1-2-1.33,5.33,5.33,0,0,0-.63-.79,1.18,1.18,0,0,0-1.29-.29l-.42.13a1.16,1.16,0,0,1-1.62-.73,3.3,3.3,0,0,0-.3-.43c-.26-.35-.53-.69-.79-1.05a17.08,17.08,0,0,0-1.21-1.68,2.17,2.17,0,0,0-2.77-.57c-.46-.28-.85-.56-1.27-.76a4.69,4.69,0,0,1-1.55-1.07,2.57,2.57,0,0,0-1.19-.8c.33.43.68.84,1,1.29a3,3,0,0,0,1.16,1l.43.22c.87.45,1,.63.74,1.64,0,.09,0,.24,0,.26a.27.27,0,0,0,.26,0A1.58,1.58,0,0,0,7.52,23c.13-.55.14-.57.66-.61a2.53,2.53,0,0,1,2.32,1.41c.34.49.61,1,.95,1.51a10.46,10.46,0,0,0,1.09,1.29,1.83,1.83,0,0,0,1.91.42c.82-.25,1-.2,1.47.54l.46.65a2.57,2.57,0,0,0,2,1.22,2.28,2.28,0,0,1,1.84,1.46.42.42,0,0,1,.08.21V33l-1.41-1-.12.05a1.47,1.47,0,0,0,.12.53,5.75,5.75,0,0,0,.73.9A2.18,2.18,0,0,1,20.28,35c0,3.23,0,6.47-.05,9.7a2.44,2.44,0,0,1-2.09,2.12c-.22,0-.32-.11-.32-.33a6.49,6.49,0,0,1,.05-.77,3,3,0,0,0-.6-2.32c-.17-.22-.37-.42-.73-.24.06.13.11.25.18.37A3.4,3.4,0,0,1,17.25,46a6.61,6.61,0,0,0,0,1.19c-.47-.06-.93-.11-1.38-.19-.06,0-.11-.16-.12-.25s0-.36-.05-.54A1.57,1.57,0,0,0,15,45a5.49,5.49,0,0,0,0,.65c.05.35.14.68.18,1s-.14.68-.52.71a5.61,5.61,0,0,1-3.21-.63c.25-.43,0-.62-.28-.76l-1.07-.43c.44-.36.43-.49,0-.74a5.15,5.15,0,0,0-.54-.23,3.11,3.11,0,0,1-1.69-1.87,3.05,3.05,0,0,0,.6-.17c.26-.14.25-.37,0-.53A1.42,1.42,0,0,0,8,41.78,4,4,0,0,1,5.48,40c-.32-.48-.64-1-.92-1.49a2.15,2.15,0,0,1-.34-1.32.75.75,0,0,0-.38-.77,4.36,4.36,0,0,1-1.62-2.33,6.7,6.7,0,0,1-.05-.79A2.07,2.07,0,0,0,2,32.62c-.23-.49-.49-1-.69-1.34.21.18.47.43.76.65a1.1,1.1,0,0,0,.59.27c.38,0,.47.21.56.51a1.33,1.33,0,0,0,.66.88,5.18,5.18,0,0,0,.54.15,3.67,3.67,0,0,0-.17-.47A5.66,5.66,0,0,1,4,32.79c-.21-.45-.51-.9,0-1.41a2.16,2.16,0,0,0,.24-.73L4,30.58a1.56,1.56,0,0,0-.28.16,2.31,2.31,0,0,0-.24.29c-.49.58-.69.6-1.28.12a2,2,0,0,1-.68-1.9l-.1,0-.33,1.26a4,4,0,0,1-.07-3l.71.09.06-.13-.55-1.11a3,3,0,0,1-.4-1.77,1.24,1.24,0,0,1,.32-.66c.32-.37.34-.52,0-.86A1.18,1.18,0,0,1,1,21.67a5.3,5.3,0,0,0,.34-2.19A7.06,7.06,0,0,1,1.53,18,3.26,3.26,0,0,1,2,17.2a5.75,5.75,0,0,0,.15.58c0,.15.07.34.17.42a.74.74,0,0,0,.51.14c.26,0,.16-.27.12-.43a7.07,7.07,0,0,1,0-3.45l.18-.6a3.35,3.35,0,0,0,1.24,1.59,12.29,12.29,0,0,1,1,1.31,2.18,2.18,0,0,0,.21.22c.07-.09.19-.17.2-.27a2.18,2.18,0,0,0-.64-1.82c-.21-.21-.45-.39-.68-.58a1.75,1.75,0,0,1-.2-2.51,1.56,1.56,0,0,0,.36-1.18,5.11,5.11,0,0,1,0-.74c.18.14.28.26.4.29a.67.67,0,0,0,.42-.07c.06,0,.06-.24,0-.36a3.75,3.75,0,0,0-.16-.43,2.15,2.15,0,0,1,.21-2.16,5.32,5.32,0,0,1,.59-.74,5.51,5.51,0,0,0,1-1.66A1.59,1.59,0,0,1,8,4,5.72,5.72,0,0,0,9.79,2.71a2.91,2.91,0,0,1,1.77-.9A5.09,5.09,0,0,0,13,1.37a3,3,0,0,1,1.92-.2c.43.08.87.11,1.3.16a4.35,4.35,0,0,1,.51,0c.66.12.76.26.73,1s.32.93.8.76a.31.31,0,0,0,.23-.41c-.08-.37-.14-.75-.21-1.12l.12-.08L19.47,2a1.66,1.66,0,0,0-.44.15c-.11.09-.25.22-.25.33s.14.25.25.32c.32.19.66.33,1,.52a.88.88,0,0,1,.38.82c0,1.87,0,3.75,0,5.63v.38l-1.45.1c-.1-.53-.22-1.14-1-1.17l.14.51a8.22,8.22,0,0,1,.21.82.86.86,0,0,1-.13.43,7.19,7.19,0,0,0-.52.83c-.06.13.05.34.08.52.11-.1.25-.17.32-.29A2,2,0,0,1,19.2,11l1.11-.29v9.84l-.95-.72a1.94,1.94,0,0,0,.69,1.43.64.64,0,0,1,.25.42C20.31,24.22,20.31,26.74,20.31,29.39ZM9.4,39a1.93,1.93,0,0,0,1.06,2.12,1.65,1.65,0,0,0,2-.77.38.38,0,0,1,.26-.13,1.89,1.89,0,0,0,1.72-1.29c0-.11.08-.23.09-.24a8.54,8.54,0,0,1,1.3.13,10.36,10.36,0,0,1,1.16.46,1.2,1.2,0,0,0,.33,0,1.47,1.47,0,0,0,1.55-1.76c0-.26,0-.58-.38-.54s-.18.36-.17.56c0,.59-.18.94-.73.91a5,5,0,0,1-1.2-.36,1.39,1.39,0,0,0-.35-.09,2,2,0,0,1-2-1.27,5.28,5.28,0,0,1-.48-2.17c0-.63.07-1.27.12-1.91a1.12,1.12,0,0,0-.53.83,5.83,5.83,0,0,0,.5,4,1.18,1.18,0,0,1,.05,1.12,1,1,0,0,1-.71.66,1.78,1.78,0,0,1-1.86-.78,2.86,2.86,0,0,0-.22-.3c-.41.62-.06,1.22,1,1.84l-.08.12a1,1,0,0,1-1.22.15A1.06,1.06,0,0,1,10,39.2,2.78,2.78,0,0,0,9.54,37a1.19,1.19,0,0,1-.07-.84.93.93,0,0,1,.45-.49c.24-.12.32.16.43.31s.06.1.1.12.33.21.45.17.13-.31.07-.49a1.3,1.3,0,0,0-.1-.25,1.8,1.8,0,0,1-.07-1.77,3.73,3.73,0,0,0,.21-2c-.13-1,.49-1.64,1.41-1.33a24.41,24.41,0,0,1,2.78,1.22,1.15,1.15,0,0,1,.57,1.14c0,.4,0,.8,0,1.2a2.92,2.92,0,0,0,.73,1.81c.09.11.26.13.4.19a1.12,1.12,0,0,0,0-.45,6,6,0,0,1-.5-3,1.78,1.78,0,0,0-1-1.82c-.23-.12-.47-.21-.71-.32l-1.6-.72a7,7,0,0,0,0-1c0-.16-.19-.29-.29-.43a2.24,2.24,0,0,0-.19.46,1.84,1.84,0,0,0,0,.47c0,.22-.09.35-.33.34a2.38,2.38,0,0,0-.65.1A2.13,2.13,0,0,1,9.11,28c-.06-.23-.15-.38-.41-.41a1.47,1.47,0,0,1-1.33-1.36,1.33,1.33,0,0,0-.13-.33l-.36.21c-.09.05-.19.17-.27.15A2.2,2.2,0,0,1,4.75,24.7a4.34,4.34,0,0,1-.15-1c0-.4-.21-.51-.56-.36a1.25,1.25,0,0,1-.49.14c-.63,0-1.27,0-2,0a2.24,2.24,0,0,0,2.29.75c0,.09,0,.15,0,.21A2.93,2.93,0,0,0,6.2,27.06c.46.13.88.2,1.08.72a.51.51,0,0,0,.26.26A2.07,2.07,0,0,1,8.77,29.2c0,.05.08.09.13.13l1.39,1.16c0,.5,0,1,0,1.49a4.59,4.59,0,0,1,0,.73c-.15.77-.34,1.54-.52,2.33a8.28,8.28,0,0,1-.71-.45A4.17,4.17,0,0,1,7.21,30.7a2,2,0,0,0,0-.54,1.46,1.46,0,0,0-.16-.41H6.9L6.62,31.3c-.84-.44-.89-1.51-1.55-2.16a3.75,3.75,0,0,0,.67,2.27c.3.36.72.62,1,1a8.39,8.39,0,0,1,.61,1.36.94.94,0,0,0,.09.12,5.5,5.5,0,0,0,1.69,1.67,2,2,0,0,0,.25,2.5,1.65,1.65,0,0,1-1.55-1.47A2.22,2.22,0,0,0,7,35.17a1.39,1.39,0,0,0-1.8.25c-.06.09,0,.25-.06.38a.7.7,0,0,0,.25,0A1.14,1.14,0,0,1,7,36.47a4,4,0,0,1,.18.59,2.25,2.25,0,0,0,1.66,1.81C9,38.92,9.21,39,9.4,39ZM14.19,6.73c-.12-.39-.22-.75-.35-1.09,0-.11-.2-.26-.27-.24a.49.49,0,0,0-.3.28,1,1,0,0,0,0,.49,7.06,7.06,0,0,0,.21.91c.19.66.23.67.85.46a1.35,1.35,0,0,1,1.77,1.34,4.11,4.11,0,0,1-.93,2.66,1.85,1.85,0,0,1-1.91,1,.81.81,0,0,0-.22,0,2.47,2.47,0,0,0-1.69.62.44.44,0,0,1-.18.12L10,13.4a3,3,0,0,0-.13-.3,2.41,2.41,0,0,0-2-1.57c-.43,0-.53-.25-.58-.6a2,2,0,0,1,0-.42A1.55,1.55,0,0,1,8.88,8.93a.43.43,0,0,0,.48-.31.42.42,0,0,0-.2-.55L9.05,8A1.31,1.31,0,0,1,9.2,5.8,5.84,5.84,0,0,1,10,5.44c.5-.22,1-.39,1.49-.64A2.89,2.89,0,0,0,13,2.57,1.47,1.47,0,0,0,13,2.11a4.37,4.37,0,0,0-.48.25c-.08.05-.11.17-.15.27a3,3,0,0,1-1.75,1.69c-.5.2-1,.42-1.48.66A2.27,2.27,0,0,0,7.89,6.54a2.18,2.18,0,0,0,.18,1.62l-.2.13A2.73,2.73,0,0,0,6.68,11.6a.57.57,0,0,1-.12.41,2.11,2.11,0,0,0-.17,2.45.85.85,0,0,0,.71.48c-.11-.45-.23-.85-.31-1.26A1,1,0,0,1,7,12.62a1,1,0,0,1,1.14,0,2.61,2.61,0,0,1,1.08,1.17.52.52,0,0,1,0,.56A2.24,2.24,0,0,0,9,15.9c0,.15.18.26.28.39a1.31,1.31,0,0,0,.26-.37,3.88,3.88,0,0,0,.17-.75,1.52,1.52,0,0,1,1.17-1.24c.12,1.11.23,1.29.75,1.25a3.68,3.68,0,0,1-.15-.35c-.19-.62,0-1.16.41-1.32a7.15,7.15,0,0,1,2.31-.15,2.77,2.77,0,0,0,.82,2.1A1.36,1.36,0,0,1,15.2,17a2.81,2.81,0,0,1-.34.55,1.61,1.61,0,0,0-.29,1.35,4.4,4.4,0,0,1,.09,1c0,1.08-.67,1.47-1.57,1a2.85,2.85,0,0,0-.43-.16,1.05,1.05,0,0,0,.95.94,1.27,1.27,0,0,1,.94.69A2.74,2.74,0,0,1,15,23.74c0,.23,0,.48.31.47s.38-.23.39-.51,0-.4,0-.63a1.75,1.75,0,0,1,1.13,1.54,1.56,1.56,0,0,0,1.8,1.32c.12,0,.3-.15.29-.22a.5.5,0,0,0-.21-.36,2.51,2.51,0,0,0-.49-.25A1.21,1.21,0,0,1,17.42,24a2,2,0,0,0-2-1.72l-.75-1.09a2.66,2.66,0,0,0,.48-2.42,1.2,1.2,0,0,1,.25-1,2.24,2.24,0,0,0,0-3.21,1.8,1.8,0,0,1,0-2.47,5,5,0,0,0,1.42-3.62,1.58,1.58,0,0,1,.5-1.24,3.75,3.75,0,0,0,.38-.49l-.1-.12c-.54,0-.8.51-1.16.85A2,2,0,0,0,14.19,6.73Zm-.71,38a3.31,3.31,0,0,0,.9,0,3,3,0,0,0,2-2c.09-.27.17-.63-.13-.75s-.38.26-.47.49a2.58,2.58,0,0,1-1.3,1.5,2.68,2.68,0,0,1-.65.14,1.44,1.44,0,0,1,.36-1.3,5.08,5.08,0,0,0,.47-1,.26.26,0,0,0-.07-.25.25.25,0,0,0-.26,0,1,1,0,0,0-.24.29A2.22,2.22,0,0,1,11.73,43a6,6,0,0,0-.6,0c.07.17.09.33.17.38a1.93,1.93,0,0,0,1.83.23c0,.69-.07.92-.65,1a8.38,8.38,0,0,1-1.23.07h-.39C11.28,45.57,12.71,45.56,13.48,44.74Zm3.09-30.2v.17a6,6,0,0,0,.65.27,2,2,0,0,1,1.26.8c.39.6.35.86-.22,1.27a1.35,1.35,0,0,0-.27.2,3.65,3.65,0,0,0-.18.34c.13.07.25.18.37.18a1.42,1.42,0,0,0,1.34-1.59,2,2,0,0,0-.88-1.5,1.74,1.74,0,0,1-.95-1.22.69.69,0,0,0-.23-.34.39.39,0,0,0-.6,0l.39,1ZM6.36,17.19a2.84,2.84,0,0,0,.44.63,2.84,2.84,0,0,0,1.93.77,1.81,1.81,0,0,1,.79.2,4.8,4.8,0,0,1,.75.55c.22.17.43.38.66.53a.38.38,0,0,0,.36,0c.07-.05.07-.24.05-.35a.86.86,0,0,0-.21-.4c-.36-.34-.74-.65-1.11-1C10,18.06,9.83,18,9.81,18c-.08-.37-.34-.33-.57-.28A3.1,3.1,0,0,1,6.77,17c-.07-.05-.18-.13-.24-.1S6.44,17,6.36,17.19ZM16,5.33l.09.1a4.35,4.35,0,0,0,.42-.33c.39-.39.72-.47,1.11-.26s.38.38.28,1c0,.1,0,.27.07.29a.52.52,0,0,0,.37,0c.07,0,.13-.16.16-.25A1.88,1.88,0,0,1,19.55,4.7c.14-.06.24-.22.39-.37a1.22,1.22,0,0,0-1.44.16,2,2,0,0,0-.44-.32c-.25-.08-.32-.24-.36-.5a1.81,1.81,0,0,0-.67-1A6,6,0,0,0,17.1,3.7a.42.42,0,0,1-.28.53A1.35,1.35,0,0,0,16,5.33Zm-4.46,5.79a2.69,2.69,0,0,0,2.09-.87c.15-.18.34-.57.27-.66-.21-.26-.43,0-.62.16a2.6,2.6,0,0,1-2.13.52,2.09,2.09,0,0,0-.85.1c-.07,0-.15.17-.16.26s.11.17.19.19ZM7.65,40l.52-.46-.41-.41a.22.22,0,0,0-.13-.06A1.26,1.26,0,0,1,6.71,38a1.29,1.29,0,0,0-.11-.45A2.32,2.32,0,0,0,6.2,37s-.24.12-.24.16a15.38,15.38,0,0,0,.32,1.67A1.73,1.73,0,0,0,7.65,40Zm9.71-17.8c.24-.66.49-1.25.65-1.87a1.48,1.48,0,0,0-.69-1.53.72.72,0,0,0-.53.08.56.56,0,0,0,0,.43,1.68,1.68,0,0,1,.32,2A.85.85,0,0,0,17.36,22.21Z"/><path class="cls-1" d="M37.53,13a4.4,4.4,0,0,1,1.12,2.78,1.19,1.19,0,0,0,.25.77,3.33,3.33,0,0,1,.73,2.66,3.84,3.84,0,0,1-.89,2.29c-.1.12-.09.35-.13.53a2.09,2.09,0,0,0,.52-.13,2.91,2.91,0,0,0,.47-.43,3.27,3.27,0,0,1-1.51,3.81c.67.4,1-.15,1.5-.42.56,1.06,0,2-.29,3.05l.5,0a2.78,2.78,0,0,1-.14,1.61A9.45,9.45,0,0,1,39,30.58c-.24.39-.2.52.22.59a5,5,0,0,1-.67,3.66,1.87,1.87,0,0,1-.41.48c-.3.29-.3.48.06.71a2.79,2.79,0,0,1-1.29,1.6c-.13.11-.3.18-.42.3s-.19.45.26.59a5.37,5.37,0,0,1-.64.89,4,4,0,0,0-1,1.44,3.36,3.36,0,0,1-1.4,1.58,10.59,10.59,0,0,0-1,.8,1.57,1.57,0,0,0-.44-.09.82.82,0,0,1-.82-.37c-.07-.09-.36-.09-.51,0a1.27,1.27,0,0,1-1.6-.65l.49-.1a3.59,3.59,0,0,0,2.32-1.8,1.79,1.79,0,0,1,1.72-1.06,3.43,3.43,0,0,0,1.91-.56,2.13,2.13,0,0,0,.86-1.3,1.22,1.22,0,0,0,0-.57c0-.12-.19-.3-.28-.29s-.33.18-.34.29c-.06,1.38-1.07,1.37-2,1.52-.24,0-.48,0-.73.06a2,2,0,0,0-1.55,1.08,3.43,3.43,0,0,1-2.09,1.76,2.75,2.75,0,0,1-.5.09c-.91.08-1.3-.3-1.29-1.23.53-.35,1-.68,1.52-1a3.57,3.57,0,0,0,1.51-2.46c.23-1.4.74-1.64,2.11-1.4a4.08,4.08,0,0,1,.6.16,2.38,2.38,0,0,0,2-.21,1.25,1.25,0,0,0,1.74,0,3.72,3.72,0,0,0,1.55-2.85.5.5,0,0,0,0-.3,1.64,1.64,0,0,0-.28-.31c-.08.1-.2.18-.23.29a7,7,0,0,0-.14.8A2.41,2.41,0,0,1,37,34.46a2.5,2.5,0,0,1-.76.15c.1-.39.18-.68.24-1,0-.08,0-.24-.09-.26a.35.35,0,0,0-.3,0,1,1,0,0,0-.27.26,1.64,1.64,0,0,1-1.92.64,5.45,5.45,0,0,0-1.65-.17,6.08,6.08,0,0,0-1.43.57c-.12-.1-.13-.34-.11-.62A1.57,1.57,0,0,1,31,32.92a1.38,1.38,0,0,0,.2-.61c0-.07,0-.22-.06-.24a.3.3,0,0,0-.26,0c-.11.08-.17.22-.28.3s-.35.3-.5.27a.64.64,0,0,1-.39-.44,2.92,2.92,0,0,1,0-1A1.77,1.77,0,0,0,28.11,29a2.45,2.45,0,0,0-2,1.05,4.2,4.2,0,0,0-.68,1.47,2.29,2.29,0,0,1-1.67,2,2.07,2.07,0,0,0-1.21.95,1.57,1.57,0,0,0-.17.58c0,.06.09.15.14.23s.19-.1.21-.18c.14-.58.59-.75,1.05-.88a3,3,0,0,0,1.46-.66,3.18,3.18,0,0,0,.8-1.58,2.35,2.35,0,0,1,1.2-1.79A1.48,1.48,0,0,1,28.3,30,1.1,1.1,0,0,1,29,31.13a8.58,8.58,0,0,0,0,1.34,1.22,1.22,0,0,0,.78,1.08c.21.08.23.63.06.89a1,1,0,0,1-1,.33.78.78,0,0,1-.59-.71c0-.14-.05-.27-.08-.42-.38,0-.49.25-.5.55a.52.52,0,0,1-.3.46,12.71,12.71,0,0,0-1,.8c-.66-.14-1,0-1.1.55.41-.29.69-.09.92.23s.49.88-.14,1.33a2,2,0,0,0-.46.53.42.42,0,0,0,0,.38.38.38,0,0,0,.36.05,1.87,1.87,0,0,0,1-2.46.47.47,0,0,1,.07-.42,3.85,3.85,0,0,1,.76-.44.22.22,0,0,1,.19,0,1.53,1.53,0,0,0,2.11,0l.11,0a1.35,1.35,0,0,1,.11.34,2.7,2.7,0,0,1-1,2.56c-.51.38-1.1.64-1.63,1a1.42,1.42,0,0,0-.53.53c-.18.38-.38.64-.81.66a1.94,1.94,0,0,0-.77.22.63.63,0,0,0-.3.39,1.24,1.24,0,0,1-.86,1,1,1,0,0,0-.71,1.25,1.92,1.92,0,0,1-1,1.73,2.3,2.3,0,0,0-.52.36,1.07,1.07,0,0,0,1.08-.09A2.34,2.34,0,0,0,24.41,43a.44.44,0,0,1,.19-.3,2,2,0,0,0,1.24-1.23c.07-.16.34-.25.53-.33s.61-.22.94-.33A1.64,1.64,0,0,0,28.14,42a.36.36,0,0,1,.1.31,2.51,2.51,0,0,1-.42.71,2.63,2.63,0,0,1-2,.76,1,1,0,0,0-1,.64c-.16.39-.36.76-.51,1.15,0,.11.06.27.09.4a1.84,1.84,0,0,0,.29-.26c.21-.3.38-.64.6-.92a.53.53,0,0,1,.41-.12,3.2,3.2,0,0,0,2.72-1.15,7.56,7.56,0,0,0,.44-.66,1.84,1.84,0,0,0,1.29.83s.07,0,.11,0a1.38,1.38,0,0,1,1.24.25c.15.14.48.06.82.09l-1,.62a4.34,4.34,0,0,0-.94.61,6,6,0,0,1-2.87,1.43.94.94,0,0,1-.29,0c0-.52-.25-.62-.67-.33-.23.17-.45.35-.71.56.08-.31.17-.57.22-.83,0-.11,0-.29-.1-.33a.35.35,0,0,0-.34,0,2.62,2.62,0,0,0-.5.55,1.64,1.64,0,0,1-2.24.46.84.84,0,0,0,.17-.13c.07-.1.18-.22.17-.31s-.15-.18-.25-.22a1.94,1.94,0,0,0-.43-.11,1,1,0,0,1-.73-1.43,3.57,3.57,0,0,1,.55-.89c.3-.41.3-.54-.07-.83a1.38,1.38,0,0,1-.39-1.27,3.27,3.27,0,0,0,0-.44l-.41.29-.09.1V41c0-3.35.06-6.71.06-10.06a1,1,0,0,1,.55-1c.45-.23.92-.43,1.37-.63a4.46,4.46,0,0,0,2.15-2,1,1,0,0,1,.46-.38A8.85,8.85,0,0,1,29,26.6a5.32,5.32,0,0,0,2.26-.33,4.51,4.51,0,0,0,2.52-3.38c0-.16.06-.33.1-.51A4.09,4.09,0,0,0,37.1,20.2l.57.63c.08.08.18.22.23.2a.49.49,0,0,0,.23-.26c.16-.44-.13-.72-.38-1.05a3.56,3.56,0,0,0,1-2.64c-.41.21-.46.59-.61.89a4.88,4.88,0,0,1-.54.9,4.84,4.84,0,0,0,0-.53.31.31,0,0,0-.16-.23.26.26,0,0,0-.24.11,4.23,4.23,0,0,0-.23.48,14.75,14.75,0,0,1-.75,1.55,2.89,2.89,0,0,1-2,1.22,1.17,1.17,0,0,1-.32,0,2.3,2.3,0,0,0-.13-.42,1.92,1.92,0,0,0-.26-.32c-.1.12-.27.23-.3.37-.07.46-.08.93-.13,1.39a3.45,3.45,0,0,1-3.22,3.17c-1.05.07-2.1.2-3.15.32a4.51,4.51,0,0,0-.75.22c-.16-.36-.4-.26-.59-.05a2.46,2.46,0,0,0-.38.62,3.76,3.76,0,0,1-2,2c-.53.23-1,.53-1.58.82,0-.86,0-1.73,0-2.6,0-.1.15-.19.22-.29.25-.37.5-.74.72-1.14,0-.08,0-.25-.07-.38a1.05,1.05,0,0,0-.35.13c-.17.17-.31.37-.52.62,0-.55,0-1,0-1.5,0-.73,0-1.47,0-2.21a.61.61,0,0,1,.3-.57l1-.55a2.68,2.68,0,0,0,1.18-1.42,1,1,0,0,0,.08-.42c0-.13-.07-.35-.16-.38s-.27.06-.37.15a.8.8,0,0,0-.2.32,2.1,2.1,0,0,1-1,1.13c-.25.13-.47.31-.76.5v-.58c0-5.4.08-10.8.09-16.19a2.25,2.25,0,0,1,.95-1.88.85.85,0,0,0,.14-.11c.11-.13.21-.27.31-.4l-.4-.3A1.87,1.87,0,0,1,25,1.08a.53.53,0,0,0,.47,0,1.39,1.39,0,0,1,1.83.16,1.82,1.82,0,0,0,1.58.38,2.89,2.89,0,0,1,2.29.7,3.83,3.83,0,0,1,.57.74.52.52,0,0,0,.74.25.5.5,0,0,1,.36,0A3.12,3.12,0,0,1,34,4.63.52.52,0,0,1,34,5a.43.43,0,0,0,.16.64A4.08,4.08,0,0,1,36,7.88,2.9,2.9,0,0,1,36,9.09a.75.75,0,0,0,.39.89,1.86,1.86,0,0,1,1,1.83.68.68,0,0,1-.29.62,5.84,5.84,0,0,0-.83.63,3.11,3.11,0,0,0-.5.82c0,.07.07.24.15.31s.18,0,.25-.06ZM25.65,16c.26.49.52.95.77,1.42a1.23,1.23,0,0,1,.16,1.07c-.2.57-.18.58.39.75a1,1,0,0,1,.83,1.31.4.4,0,0,1-.18.28A4.6,4.6,0,0,0,26,22.23a5.19,5.19,0,0,1-1.73,1.39,4.47,4.47,0,0,0-1,.83,1.43,1.43,0,0,0-.26.49l.1.1.36-.19a5.33,5.33,0,0,1,1.06-.6,4.8,4.8,0,0,0,2-1.39,5.66,5.66,0,0,1,1.22-1,1.53,1.53,0,0,1,2.3.54c.09.11.28.23.38.2a.51.51,0,0,0,.25-.37A1.06,1.06,0,0,0,30,21a9.9,9.9,0,0,0-1.45-.54c-.06-.66,0-.84.33-1.07a1.62,1.62,0,0,1,.82-.26c.79,0,1.58,0,2.37,0a2.52,2.52,0,0,0,2.31-1.56c.19-.42.39-.84.55-1.27a6,6,0,0,0,.23-.86l-.14-.1a2.25,2.25,0,0,0-.48.44c-.27.45-.51.94-.75,1.42a1.67,1.67,0,0,1-1.37,1c-.69.06-1.39.06-2.08.07a2.42,2.42,0,0,0-2,.82l-1-.63a2.48,2.48,0,0,0-.41-1.77,4.36,4.36,0,0,1-.42-.72,1.05,1.05,0,0,1-.06-.61,3.35,3.35,0,0,0-.68-3.26c-.42-.41-.92-.75-1-1.43a.58.58,0,0,0-.43.9,3.22,3.22,0,0,0,.73,1,2.09,2.09,0,0,1,.73,2c-.11.69-.16.93-.94.79a1.62,1.62,0,0,1-1.26-.93.74.74,0,0,0-.82-.54,5.78,5.78,0,0,1,.44,1.4,5.15,5.15,0,0,1-.3,1.43c.67.1.71-.5.92-.94A2.16,2.16,0,0,0,25.65,16Zm-.07-13.8a1.35,1.35,0,0,1,1.06,0,2.1,2.1,0,0,0,.64.14c.12,0,.25-.09.38-.14-.07-.14-.1-.31-.21-.39a1.65,1.65,0,0,0-1.58-.34,2.2,2.2,0,0,1-1.32,0,1.15,1.15,0,0,0-1.09.06l.42.23a2.94,2.94,0,0,1,1.55,2.13.58.58,0,0,1-.12.55,1.86,1.86,0,0,0-.19.5c.18,0,.36-.06.54-.11s.12-.1.18-.11a1.09,1.09,0,0,1,.59,0A2.21,2.21,0,0,1,27.62,6c.14.45,0,.68-.33.83a4.93,4.93,0,0,0-1-.47,2.39,2.39,0,0,0-1.75.39.52.52,0,0,1-.44,0,1.93,1.93,0,0,1-.81-1.28A1.4,1.4,0,0,0,23,5.18a2.49,2.49,0,0,0-.29.43.71.71,0,0,0,0,.38,2.36,2.36,0,0,0,1,1.62l.17.47C24,8,24.13,8,24.18,8A1.69,1.69,0,0,1,26,7.25a1,1,0,0,1,.82,1.08c0,.26,0,.52,0,.77a1.25,1.25,0,0,0,.54,1.09,5.22,5.22,0,0,1,1.51,1c.05.07.27.06.36,0s.11-.25.09-.36a1.09,1.09,0,0,0-.26-.54,4.5,4.5,0,0,0-.89-.63.83.83,0,0,1-.55-.82c0-.45,0-.9,0-1.36a1.53,1.53,0,0,0,.62-2.11,2.58,2.58,0,0,0-2-1.56Zm8.58,8.65a5.87,5.87,0,0,0-.26,2.38,1,1,0,0,1-1,1.13c-.5,0-1,.06-1.49.08a2,2,0,0,0-1.65.71,2.25,2.25,0,0,0-.19-.32,1.34,1.34,0,0,0-.37-.41.45.45,0,0,0-.42,0c-.06,0-.07.29,0,.39a2.29,2.29,0,0,1,.3,2.23.41.41,0,0,0,0,.28c.11,0,.29.05.34,0a3.25,3.25,0,0,0,.41-.67c.1-.23.15-.49.23-.73a.89.89,0,0,1,.84-.63c.56,0,1.12-.09,1.68-.1a2.16,2.16,0,0,0,2.07-2.55,9.06,9.06,0,0,1,0-1.47.41.41,0,0,1,.37-.44,1.81,1.81,0,0,0,.64-.4c.08-.07.07-.25.1-.38a1,1,0,0,0-.37-.07c-.21,0-.42.11-.63.15a.8.8,0,0,1-.92-.8,8.87,8.87,0,0,1,.2-1.45c.09-.48.25-.94.35-1.42,0-.09,0-.21-.07-.31a.68.68,0,0,0-.27.13,3.66,3.66,0,0,0-.32.46,2.38,2.38,0,0,0-1.41-1.45c.3.69.64,1.3.85,2a4.25,4.25,0,0,1-.1,2.2l-1.37-.64a.45.45,0,0,1-.2-.21c-.1-.25-.24-.27-.43-.15s-.29.31-.15.52a1.13,1.13,0,0,0,.42.42c.59.28,1.21.51,1.82.77a.77.77,0,0,1,.24.12Zm2.87,13a5.69,5.69,0,0,0-.28-.94c0-.13-.27-.17-.41-.24a2.77,2.77,0,0,0-.12.41,1,1,0,0,0,0,.34,2.32,2.32,0,0,1-.81,2.44,5.66,5.66,0,0,0-1.29,1.62c-.49.88-1.14,1.47-2.22,1.17-.13,0-.32.15-.49.24.09.18.14.47.27.52a1.62,1.62,0,0,0,.87.09,3.16,3.16,0,0,0,2-1.57A12.58,12.58,0,0,1,36,26.2,3.47,3.47,0,0,0,37,23.88Zm2.14,3.91c-.31.12-.55.21-.79.32a.66.66,0,0,1-.8-.14c-.29-.29-.6-.17-.7.25,0,.17-.06.35-.11.53a2.79,2.79,0,0,1-2.31,2,2.8,2.8,0,0,0-.58.08.43.43,0,0,0-.25.23c0,.05.1.22.18.24a2,2,0,0,0,.87.16,3.44,3.44,0,0,0,2.66-2.21c0-.08.07-.16.1-.23A1.45,1.45,0,0,0,39.17,27.79Zm-14,12.65c-.28-.14-.28-.14-1,0a.76.76,0,0,1-1-.65,1.35,1.35,0,0,1,.31-1.21.66.66,0,0,0,.1-.55,1.27,1.27,0,0,1,.16-1.14l.61-.9a.52.52,0,0,0-.46,0,2.43,2.43,0,0,0-1,1.86,1.52,1.52,0,0,1-.12.5,2.59,2.59,0,0,0-.09,2.24A1.23,1.23,0,0,0,24,41.3,1.3,1.3,0,0,0,25.15,40.44ZM29.41,4.08a2.38,2.38,0,0,0-.73-1.72,2.61,2.61,0,0,0-.57-.23,1.83,1.83,0,0,0,.11.64,3.05,3.05,0,0,1,.51,1.58c0,.13.14.26.22.39a2.12,2.12,0,0,0,.39-.33A.68.68,0,0,0,29.41,4.08Zm7.07,10.71a2.19,2.19,0,0,0-.39,2.44c.13.36.41.55.59.42s.12-.44,0-.66a3.15,3.15,0,0,1-.21-1.77A1.38,1.38,0,0,0,36.48,14.79Z"/><path class="cls-1" d="M21.34,43.85V42.77C21.76,43.26,21.76,43.55,21.34,43.85Z"/><path d="M9.4,39c-.19,0-.36-.08-.52-.13a2.25,2.25,0,0,1-1.66-1.81A4,4,0,0,0,7,36.47a1.14,1.14,0,0,0-1.65-.67.7.7,0,0,1-.25,0c0-.13,0-.29.06-.38A1.39,1.39,0,0,1,7,35.17a2.22,2.22,0,0,1,.82,1.42,1.65,1.65,0,0,0,1.55,1.47,2,2,0,0,1-.25-2.5,5.5,5.5,0,0,1-1.69-1.67.94.94,0,0,1-.09-.12,8.39,8.39,0,0,0-.61-1.36c-.27-.38-.69-.64-1-1a3.75,3.75,0,0,1-.67-2.27c.66.65.71,1.72,1.55,2.16l.28-1.54h.16a1.46,1.46,0,0,1,.16.41,2,2,0,0,1,0,.54A4.17,4.17,0,0,0,9.1,34.59a8.28,8.28,0,0,0,.71.45c.18-.79.37-1.56.52-2.33a4.59,4.59,0,0,0,0-.73c0-.5,0-1,0-1.49L8.9,29.33c-.05,0-.11-.08-.13-.13A2.07,2.07,0,0,0,7.54,28a.51.51,0,0,1-.26-.26c-.2-.52-.62-.59-1.08-.72a2.93,2.93,0,0,1-2.28-2.64c0-.06,0-.12,0-.21a2.24,2.24,0,0,1-2.29-.75c.7,0,1.34,0,2,0A1.25,1.25,0,0,0,4,23.31c.35-.15.52,0,.56.36a4.34,4.34,0,0,0,.15,1,2.2,2.2,0,0,0,1.86,1.52c.08,0,.18-.1.27-.15l.36-.21a1.33,1.33,0,0,1,.13.33A1.47,1.47,0,0,0,8.7,27.55c.26,0,.35.18.41.41a2.13,2.13,0,0,0,2.48,1.51,2.38,2.38,0,0,1,.65-.1c.24,0,.32-.12.33-.34a1.84,1.84,0,0,1,0-.47,2.24,2.24,0,0,1,.19-.46c.1.14.27.27.29.43a7,7,0,0,1,0,1l1.6.72c.24.11.48.2.71.32a1.78,1.78,0,0,1,1,1.82,6,6,0,0,0,.5,3,1.12,1.12,0,0,1,0,.45c-.14-.06-.31-.08-.4-.19a2.92,2.92,0,0,1-.73-1.81c0-.4,0-.8,0-1.2a1.15,1.15,0,0,0-.57-1.14,24.41,24.41,0,0,0-2.78-1.22c-.92-.31-1.54.33-1.41,1.33a3.73,3.73,0,0,1-.21,2,1.8,1.8,0,0,0,.07,1.77,1.3,1.3,0,0,1,.1.25c.06.18.18.41-.07.49s-.3-.1-.45-.17-.06-.08-.1-.12-.19-.43-.43-.31a.93.93,0,0,0-.45.49,1.19,1.19,0,0,0,.07.84A2.78,2.78,0,0,1,10,39.2a1.06,1.06,0,0,0,.64,1.19,1,1,0,0,0,1.22-.15l.08-.12c-1.08-.62-1.43-1.22-1-1.84a2.86,2.86,0,0,1,.22.3,1.78,1.78,0,0,0,1.86.78,1,1,0,0,0,.71-.66,1.18,1.18,0,0,0-.05-1.12,5.83,5.83,0,0,1-.5-4,1.12,1.12,0,0,1,.53-.83c-.05.64-.13,1.28-.12,1.91a5.28,5.28,0,0,0,.48,2.17,2,2,0,0,0,2,1.27,1.39,1.39,0,0,1,.35.09,5,5,0,0,0,1.2.36c.55,0,.77-.32.73-.91,0-.2-.18-.52.17-.56s.35.28.38.54a1.47,1.47,0,0,1-1.55,1.76,1.2,1.2,0,0,1-.33,0,10.36,10.36,0,0,0-1.16-.46,8.54,8.54,0,0,0-1.3-.13s0,.13-.09.24a1.89,1.89,0,0,1-1.72,1.29.38.38,0,0,0-.26.13,1.65,1.65,0,0,1-2,.77A1.93,1.93,0,0,1,9.4,39Z"/><path d="M14.19,6.73a2,2,0,0,1,2.29.79c.36-.34.62-.84,1.16-.85l.1.12a3.75,3.75,0,0,1-.38.49,1.58,1.58,0,0,0-.5,1.24,5,5,0,0,1-1.42,3.62,1.8,1.8,0,0,0,0,2.47,2.24,2.24,0,0,1,0,3.21,1.2,1.2,0,0,0-.25,1,2.66,2.66,0,0,1-.48,2.42l.75,1.09a2,2,0,0,1,2,1.72,1.21,1.21,0,0,0,.77,1.08,2.51,2.51,0,0,1,.49.25.5.5,0,0,1,.21.36c0,.07-.17.19-.29.22a1.56,1.56,0,0,1-1.8-1.32,1.75,1.75,0,0,0-1.13-1.54c0,.23,0,.43,0,.63s-.11.51-.39.51S15,24,15,23.74a2.74,2.74,0,0,0-.42-1.42,1.27,1.27,0,0,0-.94-.69,1.05,1.05,0,0,1-.95-.94,2.85,2.85,0,0,1,.43.16c.9.51,1.54.12,1.57-1a4.4,4.4,0,0,0-.09-1,1.61,1.61,0,0,1,.29-1.35A2.81,2.81,0,0,0,15.2,17,1.36,1.36,0,0,0,15,15.46a2.77,2.77,0,0,1-.82-2.1,7.15,7.15,0,0,0-2.31.15c-.43.16-.6.7-.41,1.32a3.68,3.68,0,0,0,.15.35c-.52,0-.63-.14-.75-1.25a1.52,1.52,0,0,0-1.17,1.24,3.88,3.88,0,0,1-.17.75,1.31,1.31,0,0,1-.26.37c-.1-.13-.25-.24-.28-.39a2.24,2.24,0,0,1,.28-1.6.52.52,0,0,0,0-.56,2.61,2.61,0,0,0-1.08-1.17,1,1,0,0,0-1.14,0,1,1,0,0,0-.24,1.06c.08.41.2.81.31,1.26a.85.85,0,0,1-.71-.48A2.11,2.11,0,0,1,6.56,12a.57.57,0,0,0,.12-.41A2.73,2.73,0,0,1,7.87,8.29l.2-.13a2.18,2.18,0,0,1-.18-1.62A2.27,2.27,0,0,1,9.1,5c.48-.24,1-.46,1.48-.66a3,3,0,0,0,1.75-1.69c0-.1.07-.22.15-.27A4.37,4.37,0,0,1,13,2.11a1.47,1.47,0,0,1,.07.46A2.89,2.89,0,0,1,11.45,4.8c-.48.25-1,.42-1.49.64a5.84,5.84,0,0,0-.76.36A1.31,1.31,0,0,0,9.05,8l.11.1a.42.42,0,0,1,.2.55.43.43,0,0,1-.48.31,1.55,1.55,0,0,0-1.61,1.58,2,2,0,0,0,0,.42c0,.35.15.56.58.6a2.41,2.41,0,0,1,2,1.57,3,3,0,0,1,.13.3l1.13-.15a.44.44,0,0,0,.18-.12A2.47,2.47,0,0,1,13,12.51a.81.81,0,0,1,.22,0,1.85,1.85,0,0,0,1.91-1,4.11,4.11,0,0,0,.93-2.66,1.35,1.35,0,0,0-1.77-1.34c-.62.21-.66.2-.85-.46a7.06,7.06,0,0,1-.21-.91,1,1,0,0,1,0-.49.49.49,0,0,1,.3-.28c.07,0,.23.13.27.24C14,6,14.07,6.34,14.19,6.73Z"/><path d="M13.48,44.74c-.77.82-2.2.83-2.62-.08h.39a8.38,8.38,0,0,0,1.23-.07c.58-.11.7-.34.65-1a1.93,1.93,0,0,1-1.83-.23c-.08,0-.1-.21-.17-.38a6,6,0,0,1,.6,0,2.22,2.22,0,0,0,2.35-1.11,1,1,0,0,1,.24-.29.25.25,0,0,1,.26,0,.26.26,0,0,1,.07.25,5.08,5.08,0,0,1-.47,1,1.44,1.44,0,0,0-.36,1.3,2.68,2.68,0,0,0,.65-.14,2.58,2.58,0,0,0,1.3-1.5c.09-.23.13-.63.47-.49s.22.48.13.75a3,3,0,0,1-2,2A3.31,3.31,0,0,1,13.48,44.74Z"/><path d="M16.57,14.54l.68-.41-.39-1a.39.39,0,0,1,.6,0,.69.69,0,0,1,.23.34,1.74,1.74,0,0,0,.95,1.22,2,2,0,0,1,.88,1.5,1.42,1.42,0,0,1-1.34,1.59c-.12,0-.24-.11-.37-.18a3.65,3.65,0,0,1,.18-.34,1.35,1.35,0,0,1,.27-.2c.57-.41.61-.67.22-1.27a2,2,0,0,0-1.26-.8,6,6,0,0,1-.65-.27Z"/><path d="M6.36,17.19c.08-.15.11-.28.17-.31s.17.05.24.1a3.1,3.1,0,0,0,2.47.71c.23-.05.49-.09.57.28,0,.06.14.09.21.14.37.33.75.64,1.11,1a.86.86,0,0,1,.21.4c0,.11,0,.3-.05.35a.38.38,0,0,1-.36,0c-.23-.15-.44-.36-.66-.53a4.8,4.8,0,0,0-.75-.55,1.81,1.81,0,0,0-.79-.2,2.84,2.84,0,0,1-1.93-.77A2.84,2.84,0,0,1,6.36,17.19Z"/><path d="M16,5.33a1.35,1.35,0,0,1,.84-1.1.42.42,0,0,0,.28-.53A6,6,0,0,1,17,2.65a1.81,1.81,0,0,1,.67,1c0,.26.11.42.36.5a2,2,0,0,1,.44.32,1.22,1.22,0,0,1,1.44-.16c-.15.15-.25.31-.39.37a1.88,1.88,0,0,0-1.07,1.18c0,.09-.09.22-.16.25a.52.52,0,0,1-.37,0c-.05,0-.09-.19-.07-.29.1-.62.05-.82-.28-1s-.72-.13-1.11.26a4.35,4.35,0,0,1-.42.33Z"/><path d="M11.52,11.12l-1.21-.3c-.08,0-.2-.13-.19-.19s.09-.24.16-.26a2.09,2.09,0,0,1,.85-.1,2.6,2.6,0,0,0,2.13-.52c.19-.13.41-.42.62-.16.07.09-.12.48-.27.66A2.69,2.69,0,0,1,11.52,11.12Z"/><path d="M7.65,40a1.73,1.73,0,0,1-1.37-1.16A15.38,15.38,0,0,1,6,37.18S6.18,37,6.2,37a2.32,2.32,0,0,1,.4.48,1.29,1.29,0,0,1,.11.45,1.26,1.26,0,0,0,.92,1.13.22.22,0,0,1,.13.06l.41.41Z"/><path d="M17.36,22.21a.85.85,0,0,1-.21-.89,1.68,1.68,0,0,0-.32-2,.56.56,0,0,1,0-.43.72.72,0,0,1,.53-.08A1.48,1.48,0,0,1,18,20.34C17.85,21,17.6,21.55,17.36,22.21Z"/><path d="M25.65,16a2.16,2.16,0,0,1-1.77-.27c-.21.44-.25,1-.92.94a5.15,5.15,0,0,0,.3-1.43,5.78,5.78,0,0,0-.44-1.4.74.74,0,0,1,.82.54,1.62,1.62,0,0,0,1.26.93c.78.14.83-.1.94-.79a2.09,2.09,0,0,0-.73-2,3.22,3.22,0,0,1-.73-1,.58.58,0,0,1,.43-.9c.05.68.55,1,1,1.43a3.35,3.35,0,0,1,.68,3.26,1.05,1.05,0,0,0,.06.61,4.36,4.36,0,0,0,.42.72,2.48,2.48,0,0,1,.41,1.77l1,.63a2.42,2.42,0,0,1,2-.82c.69,0,1.39,0,2.08-.07a1.67,1.67,0,0,0,1.37-1c.24-.48.48-1,.75-1.42a2.25,2.25,0,0,1,.48-.44l.14.1a6,6,0,0,1-.23.86c-.16.43-.36.85-.55,1.27a2.52,2.52,0,0,1-2.31,1.56c-.79,0-1.58,0-2.37,0a1.62,1.62,0,0,0-.82.26c-.37.23-.39.41-.33,1.07A9.9,9.9,0,0,1,30,21a1.06,1.06,0,0,1,.59,1.21.51.51,0,0,1-.25.37c-.1,0-.29-.09-.38-.2a1.53,1.53,0,0,0-2.3-.54,5.66,5.66,0,0,0-1.22,1,4.8,4.8,0,0,1-2,1.39,5.33,5.33,0,0,0-1.06.6l-.36.19-.1-.1a1.43,1.43,0,0,1,.26-.49,4.47,4.47,0,0,1,1-.83A5.19,5.19,0,0,0,26,22.23a4.6,4.6,0,0,1,1.65-1.39.4.4,0,0,0,.18-.28A1,1,0,0,0,27,19.25c-.57-.17-.59-.18-.39-.75a1.23,1.23,0,0,0-.16-1.07C26.17,17,25.91,16.5,25.65,16Z"/><path d="M25.58,2.21l.62,1.58a2.58,2.58,0,0,1,2,1.56,1.53,1.53,0,0,1-.62,2.11c0,.46,0,.91,0,1.36a.83.83,0,0,0,.55.82,4.5,4.5,0,0,1,.89.63,1.09,1.09,0,0,1,.26.54c0,.11,0,.31-.09.36s-.31.07-.36,0a5.22,5.22,0,0,0-1.51-1,1.25,1.25,0,0,1-.54-1.09c0-.25,0-.51,0-.77A1,1,0,0,0,26,7.25a1.69,1.69,0,0,0-1.81.7c-.05.07-.18.09-.27.13l-.17-.47a2.36,2.36,0,0,1-1-1.62.71.71,0,0,1,0-.38A2.49,2.49,0,0,1,23,5.18a1.4,1.4,0,0,1,.27.33,1.93,1.93,0,0,0,.81,1.28.52.52,0,0,0,.44,0,2.39,2.39,0,0,1,1.75-.39,4.93,4.93,0,0,1,1,.47c.35-.15.47-.38.33-.83a2.21,2.21,0,0,0-1.19-1.39,1.09,1.09,0,0,0-.59,0c-.06,0-.12.09-.18.11s-.36.07-.54.11a1.86,1.86,0,0,1,.19-.5.58.58,0,0,0,.12-.55,2.94,2.94,0,0,0-1.55-2.13l-.42-.23a1.15,1.15,0,0,1,1.09-.06,2.2,2.2,0,0,0,1.32,0,1.65,1.65,0,0,1,1.58.34c.11.08.14.25.21.39-.13.05-.26.15-.38.14a2.1,2.1,0,0,1-.64-.14A1.35,1.35,0,0,0,25.58,2.21Z"/><path d="M34.16,10.86l-.71-.66a.77.77,0,0,0-.24-.12c-.61-.26-1.23-.49-1.82-.77A1.13,1.13,0,0,1,31,8.89c-.14-.21,0-.39.15-.52s.33-.1.43.15a.45.45,0,0,0,.2.21l1.37.64a4.25,4.25,0,0,0,.1-2.2c-.21-.65-.55-1.26-.85-1.95a2.38,2.38,0,0,1,1.41,1.45,3.66,3.66,0,0,1,.32-.46.68.68,0,0,1,.27-.13c0,.1.1.22.07.31-.1.48-.26.94-.35,1.42a8.87,8.87,0,0,0-.2,1.45.8.8,0,0,0,.92.8c.21,0,.42-.13.63-.15a1,1,0,0,1,.37.07c0,.13,0,.31-.1.38a1.81,1.81,0,0,1-.64.4.41.41,0,0,0-.37.44,9.06,9.06,0,0,0,0,1.47,2.16,2.16,0,0,1-2.07,2.55c-.56,0-1.12.06-1.68.1a.89.89,0,0,0-.84.63c-.08.24-.13.5-.23.73a3.25,3.25,0,0,1-.41.67c-.05.06-.23,0-.34,0a.41.41,0,0,1,0-.28,2.29,2.29,0,0,0-.3-2.23c-.06-.1-.05-.36,0-.39a.45.45,0,0,1,.42,0,1.34,1.34,0,0,1,.37.41,2.25,2.25,0,0,1,.19.32,2,2,0,0,1,1.65-.71c.5,0,1,0,1.49-.08a1,1,0,0,0,1-1.13A5.87,5.87,0,0,1,34.16,10.86Z"/><path d="M37,23.88a3.47,3.47,0,0,1-1,2.32A12.58,12.58,0,0,0,34.61,28a3.16,3.16,0,0,1-2,1.57,1.62,1.62,0,0,1-.87-.09c-.13-.05-.18-.34-.27-.52.17-.09.36-.28.49-.24,1.08.3,1.73-.29,2.22-1.17a5.66,5.66,0,0,1,1.29-1.62,2.32,2.32,0,0,0,.81-2.44,1,1,0,0,1,0-.34,2.77,2.77,0,0,1,.12-.41c.14.07.36.11.41.24A5.69,5.69,0,0,1,37,23.88Z"/><path d="M39.17,27.79A1.45,1.45,0,0,1,37.44,29c0,.07-.07.15-.1.23a3.44,3.44,0,0,1-2.66,2.21,2,2,0,0,1-.87-.16c-.08,0-.2-.19-.18-.24a.43.43,0,0,1,.25-.23,2.8,2.8,0,0,1,.58-.08,2.79,2.79,0,0,0,2.31-2c0-.18.07-.36.11-.53.1-.42.41-.54.7-.25a.66.66,0,0,0,.8.14C38.62,28,38.86,27.91,39.17,27.79Z"/><path d="M25.15,40.44A1.3,1.3,0,0,1,24,41.3a1.23,1.23,0,0,1-1.29-.68,2.59,2.59,0,0,1,.09-2.24,1.52,1.52,0,0,0,.12-.5,2.43,2.43,0,0,1,1-1.86.52.52,0,0,1,.46,0l-.61.9A1.27,1.27,0,0,0,23.59,38a.66.66,0,0,1-.1.55,1.35,1.35,0,0,0-.31,1.21.76.76,0,0,0,1,.65C24.87,40.3,24.87,40.3,25.15,40.44Z"/><path d="M29.41,4.08a.68.68,0,0,1-.07.33,2.12,2.12,0,0,1-.39.33c-.08-.13-.22-.26-.22-.39a3.05,3.05,0,0,0-.51-1.58,1.83,1.83,0,0,1-.11-.64,2.61,2.61,0,0,1,.57.23A2.38,2.38,0,0,1,29.41,4.08Z"/><path d="M36.48,14.79a1.38,1.38,0,0,1,0,.43A3.15,3.15,0,0,0,36.72,17c.08.22.23.47,0,.66s-.46-.06-.59-.42A2.19,2.19,0,0,1,36.48,14.79Z"/></g></g></g></svg>