<svg xmlns="http://www.w3.org/2000/svg" viewBox="0 0 16.88 12.57"><defs><style>.cls-1{fill:#fff;}</style></defs><title>Asset 1cycling</title><g id="Layer_2" data-name="Layer 2"><g id="Interests"><path class="cls-1" d="M10.71,3.83l1.06-.06a.84.84,0,0,1,.79.29.57.57,0,0,1,0,.69.74.74,0,0,1-.55.34c-.12,0-.16,0-.15.14,0,.26,0,.53,0,.79a2.22,2.22,0,0,0,.2.45,1.79,1.79,0,0,0,.13.22,4,4,0,0,1,3.09.37,3,3,0,0,1,1.43,1.75,2.94,2.94,0,0,1-2.12,3.55A3.85,3.85,0,0,1,10.28,11a2.84,2.84,0,0,1,1.48-4.18l-.28-.6c-.2.18-.38.33-.54.49L8.11,9.39l0,0c-.15.14-.28.16-.41.06s-.1-.24,0-.36l1-.9,2-1.87c.19-.18.38-.37.59-.55a.36.36,0,0,0,.14-.34,3,3,0,0,1,0-.3h-.17A2.11,2.11,0,0,1,9.16,3c0-.24,0-.47,0-.7s0-.38,0-.57-.13-.29-.32-.3a7,7,0,0,0-1,0,2.89,2.89,0,0,0-1.23.41l-.06,0c-.37.25-.4.38-.08.67s.69.57,1,.84a5.12,5.12,0,0,1,.93.93.84.84,0,0,1,.05,1,7.65,7.65,0,0,1-.78,1c-.37.41-.79.79-1.2,1.2a.64.64,0,0,1,.18.68.4.4,0,0,0,.07.2c.81,1.67-.26,3.56-2.29,4A3.55,3.55,0,0,1,.05,10.06,3.09,3.09,0,0,1,2.89,6.58a4.2,4.2,0,0,1,2,.2.24.24,0,0,0,.19,0C5.53,6.4,6,6,6.33,5.64a.92.92,0,0,0-.08-1.4L5.93,4A6.57,6.57,0,0,1,5,3.12a1.4,1.4,0,0,1,.18-2,4.27,4.27,0,0,1,2.23-1,4.26,4.26,0,0,1,2.1.09,1.51,1.51,0,0,1,1.18,1.34c0,.48,0,1,0,1.42Zm1.63,4.23a.77.77,0,0,0-1.19-.26,2.29,2.29,0,0,0-.54,2.8,3.21,3.21,0,0,0,4,1.27,2.42,2.42,0,0,0,1.41-3.45A3,3,0,0,0,13.79,7L13,8.19l.4.81a.44.44,0,0,0,.2.15.42.42,0,0,1,.27.58.57.57,0,0,1-.67.24.41.41,0,0,1-.29-.56.25.25,0,0,0,0-.29c0-.07-.06-.13-.1-.2ZM4.65,7.18A3.28,3.28,0,0,0,1,8.1a2.31,2.31,0,0,0,.42,3.33,3.42,3.42,0,0,0,3.91.14A2.42,2.42,0,0,0,6.51,9.43a.78.78,0,0,0-.65-.76A2,2,0,0,1,5,8.22c-.33.37-.66.73-1,1.1,0,0,0,.1,0,.15a1.08,1.08,0,0,1-.11.36.52.52,0,0,1-.62.12A.43.43,0,0,1,3,9.48a.52.52,0,0,1,.46-.38c.07,0,.15,0,.18-.06.33-.35.65-.71,1-1.07a.14.14,0,0,0,0-.12A.62.62,0,0,1,4.65,7.18Z"/></g></g></svg>