<svg xmlns="http://www.w3.org/2000/svg" viewBox="0 0 52.76 41.51"><defs><style>.cls-1{fill:#fff;}</style></defs><title>Asset 4management</title><g id="Layer_2" data-name="Layer 2"><g id="Skill_set" data-name="Skill set"><g id="Management"><path d="M12.49,28l.93.59c-.58.67-1.13,1.32-1.7,1.94a.7.7,0,0,0-.19.72c.43,1.88.84,3.77,1.26,5.67a.69.69,0,0,1,0,.35c-.49,1-1,2.07-1.53,3.2-.55-1.14-1.12-2.16-1.52-3.26-.14-.4.13-1,.24-1.46.33-1.54.69-3.07,1-4.61a.8.8,0,0,0-.17-.57c-.55-.65-1.12-1.28-1.72-2l1-.63c-.29-.1-.48-.17-.68-.22A7.41,7.41,0,0,1,6.07,26a1,1,0,0,0-.57-.24A5.46,5.46,0,0,0,0,31.16c0,3.3,0,6.6,0,9.9,0,.35.1.45.45.45H22.08c.36,0,.46-.11.46-.46,0-3.17,0-6.35,0-9.52a5.41,5.41,0,0,0-3.26-5.25,10.2,10.2,0,0,0-2.31-.5.53.53,0,0,0-.38.12,7.57,7.57,0,0,1-3.9,2A.86.86,0,0,0,12.49,28Z"/><path d="M12.8,12.8l2.12.76V3.92a1.58,1.58,0,0,1,1.75-1.75H48.86A1.58,1.58,0,0,1,50.61,4c0,7.28,0,14.56,0,21.85a1.78,1.78,0,0,1-2,2c-7.92,0-15.83,0-23.75,0-.67,0-1.34,0-2,0l-.43,0c.26.67.51,1.31.78,1.94a.36.36,0,0,0,.24.17,1.53,1.53,0,0,0,.37,0H49a3.69,3.69,0,0,0,3.76-3.8q0-11.11,0-22.23A3.72,3.72,0,0,0,48.9,0c-2.22,0-4.44,0-6.66,0H16.75a3.71,3.71,0,0,0-3.83,2.76,3,3,0,0,0-.14.84q0,4.5,0,9A1.11,1.11,0,0,0,12.8,12.8Z"/><path d="M11.39,27.1a6.82,6.82,0,0,0-.23-13.63,6.82,6.82,0,0,0,.23,13.63Z"/><path d="M36.8,21.9V16h.75c1,0,2,0,3,0,.39,0,.58-.14.56-.55s0-.57,0-.85c0-.65-.08-.73-.74-.73h-3.1l-.48,0V8.1l.52,0h3.23c.39,0,.59-.15.57-.56s0-.73,0-1.09S41,6,40.66,6c-1.86,0-3.72,0-5.58,0-.15,0-.33.22-.42.38a1,1,0,0,0,0,.47v7.09H32a.46.46,0,0,0-.52.52v1.09a.5.5,0,0,0,.58.56h2.11l.5,0v7.17c0,.64.1.74.74.74h5.07c.58,0,.67-.1.68-.69,0-.26,0-.53,0-.8,0-.53-.1-.64-.62-.64H36.8Z"/><path d="M26,8l-1,.36a1.22,1.22,0,0,1-1.23-.69c-.28-1.19-.28-1.17-1.48-1.18-.47,0-.72.16-.73.63a1.27,1.27,0,0,1-.75,1.22,1,1,0,0,1-.87,0c-.84-.27-.83-.28-1.26.49L18.6,9c-.35.62-.39.71.21,1.11a1.3,1.3,0,0,1,.53,1.42c0,.2-.25.4-.43.56-.64.56-.65.55-.23,1.27l.07.12c.47.8.47.8,1.34.48a1.1,1.1,0,0,1,1.53.86c0,.13.05.25.07.38,0,.4.23.59.65.54a5.23,5.23,0,0,1,.56,0c.79,0,.89,0,.91-.83s.51-.9,1-1.11c.19-.09.52.1.78.19.66.23.68.23,1-.39.68-1.22.65-.94-.34-1.8a1.22,1.22,0,0,1,0-1.43c1-.89,1-.63.26-1.89A4.23,4.23,0,0,0,26,8ZM22.71,9.36a1.68,1.68,0,0,1,1.68,1.71,1.69,1.69,0,1,1-3.37,0A1.67,1.67,0,0,1,22.71,9.36Z"/><path d="M48.07,7c0-.53,0-1.07,0-1.61a.82.82,0,0,0-.85-.91c-1.09,0-2.19,0-3.28,0a.84.84,0,0,0-.89.9c0,1.1,0,2.21,0,3.31a.81.81,0,0,0,.93.88h3.19a.81.81,0,0,0,.89-.91C48.08,8.1,48.07,7.55,48.07,7Z"/><path d="M48.08,23c0-.54,0-1.07,0-1.61s-.29-.93-.88-.95c-1.09,0-2.18,0-3.28,0a.82.82,0,0,0-.86.92c0,1.08,0,2.17,0,3.26a.82.82,0,0,0,.92.9c1.06,0,2.13,0,3.19,0a.82.82,0,0,0,.9-.91C48.09,24.05,48.08,23.52,48.08,23Z"/><path d="M45.6,17.53h1.54a.85.85,0,0,0,.94-.93c0-1.08,0-2.15,0-3.22a.83.83,0,0,0-.89-.94c-1.08,0-2.15,0-3.23,0a.84.84,0,0,0-.89,1q0,1.61,0,3.21a.84.84,0,0,0,.94.93Z"/><path d="M26.19,18.44l-.43.15A.77.77,0,0,1,24.67,18c-.05-.21-.14-.56-.27-.59a2.24,2.24,0,0,0-1.06,0c-.12,0-.19.39-.24.61a.79.79,0,0,1-1,.64c-.23-.06-.58-.2-.69-.1a2.9,2.9,0,0,0-.54.92c0,.07.12.27.22.36.7.64.71,1,0,1.57a.42.42,0,0,0-.12.64,3.38,3.38,0,0,1,.24.41c.14.29.33.35.65.24.85-.3,1.14-.13,1.31.76.06.32.22.47.55.43a2,2,0,0,1,.42,0c.35,0,.49-.11.54-.47.12-.85.46-1.05,1.28-.75a.45.45,0,0,0,.67-.26c.07-.15.2-.27.22-.42a.78.78,0,0,0-.09-.56c-.7-.76-.71-.93,0-1.67a.56.56,0,0,0,.09-.51C26.68,18.94,26.64,18.49,26.19,18.44Zm-1.08,2.11A1.22,1.22,0,0,1,24,21.78a1.22,1.22,0,0,1,0-2.44A1.22,1.22,0,0,1,25.11,20.55Z"/><path d="M30,15.47a.77.77,0,0,0-.93-.78c-.51.17-.87,0-.93-.57s-.35-.46-.69-.47-.53.14-.56.52a.62.62,0,0,1-.89.55c-.31-.12-.54-.15-.72.22s-.35.6.09.91a.6.6,0,0,1,0,1c-.34.25-.28.47-.1.79s.33.5.73.32.86,0,.95.56.44.4.76.43.46-.17.5-.47c.1-.54.42-.75.92-.54s.55,0,.72-.32.26-.55-.08-.81-.45-.69,0-1.1C29.89,15.65,30,15.54,30,15.47Zm-2.46-.13a.94.94,0,0,1,1,1,1,1,0,0,1-.95,1,1,1,0,0,1-1-1A1,1,0,0,1,27.58,15.34Z"/><path class="cls-1" d="M22.71,9.36A1.67,1.67,0,0,0,21,11.06a1.69,1.69,0,1,0,3.37,0A1.68,1.68,0,0,0,22.71,9.36Zm.94,1.74a1,1,0,0,1-.92,1,1,1,0,0,1-1-1,1,1,0,1,1,1.93,0Z"/><path class="cls-1" d="M25.11,20.55a1.22,1.22,0,0,0-1.19-1.21,1.22,1.22,0,0,0,0,2.44A1.22,1.22,0,0,0,25.11,20.55Zm-.51.05a.7.7,0,0,1-.67.71.71.71,0,1,1,0-1.41A.72.72,0,0,1,24.6,20.6Z"/><path class="cls-1" d="M27.58,15.34a1,1,0,0,0-1,.95,1,1,0,0,0,1,1,1,1,0,0,0,.95-1A.94.94,0,0,0,27.58,15.34Zm-.56,1c0-.39.22-.59.55-.59a.54.54,0,0,1,.58.56.53.53,0,0,1-.57.57A.51.51,0,0,1,27,16.36Z"/><path d="M23.65,11.1a1,1,0,1,0-1.93,0,1,1,0,0,0,1,1A1,1,0,0,0,23.65,11.1Z"/><path d="M24.6,20.6a.72.72,0,0,0-.68-.7.71.71,0,1,0,0,1.41A.7.7,0,0,0,24.6,20.6Z"/><path d="M27,16.36a.51.51,0,0,0,.56.54.53.53,0,0,0,.57-.57.54.54,0,0,0-.58-.56C27.24,15.77,27,16,27,16.36Z"/></g></g></g></svg>