<svg xmlns="http://www.w3.org/2000/svg" viewBox="0 0 18.94 15.76"><defs><style>.cls-1{fill:#fff;}</style></defs><title>Asset 7camera</title><g id="Layer_2" data-name="Layer 2"><g id="Interests"><path class="cls-1" d="M0,14.1H7.23a1.12,1.12,0,0,0-1.08-.64c-1.86,0-3.71,0-5.56,0H0V5.1H.56c2.13,0,4.26,0,6.4,0a3.05,3.05,0,0,0,2.09-.69H.24V2.84H1.69c-.08-.64.31-.67.77-.64s.63,0,1,0,.69-.06.66.45c0,.06.23.13.41.24a1.65,1.65,0,0,0,0-.4c0-.41.15-.53.55-.5A10.44,10.44,0,0,0,6.43,2c.47,0,.74.08.66.59a.57.57,0,0,0,0,.18c1,.15.93.14,1.24-.65A18.4,18.4,0,0,1,9.26.27.67.67,0,0,1,9.75,0c1.45,0,2.9,0,4.36,0a.71.71,0,0,1,.5.31c.35.6.65,1.23,1,1.87h1.6c.65,0,.65,0,.77.59l.63.06V4.4H14.48l0,.13c.49.2.85.62,1.49.59,1-.06,2,0,3,0v8.37c-.5,0-1,0-1.53,0a1.15,1.15,0,0,0-1.24.62h2.74a1.13,1.13,0,0,1-1.16,1.29c-1,0-2.07,0-3.1,0-.79.06-1.56.33-2.35.36A15.79,15.79,0,0,1,10,15.59a15.47,15.47,0,0,0-1.65-.2c-2.34,0-4.68,0-7,0A1.2,1.2,0,0,1,0,14.1ZM17.65,9.93a5.82,5.82,0,0,0-5.87-5.72,5.85,5.85,0,0,0-6,5.5,5.81,5.81,0,0,0,5.84,5.83A5.83,5.83,0,0,0,17.65,9.93ZM11.89,3.07H14.3c.59,0,.89-.22.9-.62s-.3-.62-.89-.63H9.49c-.56,0-.9.26-.88.65s.33.6.87.6C10.28,3.08,11.09,3.07,11.89,3.07Zm-9,1.19H5.77V3.11H2.92Z"/><path class="cls-1" d="M17.65,9.93a5.83,5.83,0,0,1-6.07,5.61A5.81,5.81,0,0,1,5.74,9.71a5.85,5.85,0,0,1,6-5.5A5.82,5.82,0,0,1,17.65,9.93Zm-1.16-.08a4.69,4.69,0,0,0-4.82-4.54A4.69,4.69,0,0,0,6.9,9.91a4.69,4.69,0,0,0,4.82,4.53A4.68,4.68,0,0,0,16.49,9.85Z"/><path class="cls-1" d="M16.49,9.85a4.68,4.68,0,0,1-4.77,4.59A4.69,4.69,0,0,1,6.9,9.91a4.69,4.69,0,0,1,4.77-4.6A4.69,4.69,0,0,1,16.49,9.85Zm-8,0A3.13,3.13,0,0,0,11.74,13,3.18,3.18,0,0,0,15,9.86a3.19,3.19,0,0,0-3.24-3.07A3.15,3.15,0,0,0,8.46,9.89Z"/><path class="cls-1" d="M13.45,10.29c.22.26.47.43.45.55a.67.67,0,0,1-.43.42c-.11,0-.39-.22-.41-.37S13.25,10.57,13.45,10.29Z"/></g></g></svg>