<svg xmlns="http://www.w3.org/2000/svg" viewBox="0 0 16.07 15.55"><defs><style>.cls-1{fill:#fff;}</style></defs><title>Asset 4plane</title><g id="Layer_2" data-name="Layer 2"><g id="Interests"><path class="cls-1" d="M16,7a.91.91,0,0,0-.62-.71L9.8,4.66,9.94,3A3.79,3.79,0,0,0,9.08.5L9,.45a1.27,1.27,0,0,0-1.95,0l0,0A4,4,0,0,0,6.21,3l.14,1.64L.7,6.27A.93.93,0,0,0,.07,7L0,7.59a.48.48,0,0,0,.54.52l6-.2h.08L7.06,13,4.41,14.62a.77.77,0,0,0-.34.51l0,.19c0,.18.12.27.3.21l2.91-1a.44.44,0,0,0,.26-.24.8.8,0,0,0,.55.31.75.75,0,0,0,.5-.26.45.45,0,0,0,.24.19l2.91,1c.19.06.32,0,.3-.21l0-.19a.79.79,0,0,0-.33-.51L9.08,13l.44-5.13h0l6,.2a.48.48,0,0,0,.53-.52Z"/></g></g></svg>